<svg width="440" height="67" viewBox="0 0 440 67" fill="none" xmlns="http://www.w3.org/2000/svg">
<g clip-path="url(#clip0_91_489)">
<path d="M33.12 66.96C28.8 66.96 24.7733 66.1867 21.04 64.64C17.36 63.0933 14.1067 60.9333 11.28 58.16C8.50667 55.3867 6.32 52.1333 4.72 48.4C3.17333 44.6667 2.4 40.5867 2.4 36.16C2.4 31.7333 3.17333 27.6533 4.72 23.92C6.32 20.1333 8.50667 16.88 11.28 14.16C14.0533 11.3867 17.3067 9.25333 21.04 7.76C24.7733 6.21333 28.8 5.44 33.12 5.44C37.4933 5.44 41.52 6.21333 45.2 7.76C48.9333 9.25333 52.1867 11.3867 54.96 14.16C57.7867 16.9333 59.9733 20.1867 61.52 23.92C63.0667 27.6533 63.84 31.7333 63.84 36.16C63.84 40.5867 63.04 44.6667 61.44 48.4C59.8933 52.1333 57.7333 55.3867 54.96 58.16C52.1867 60.9333 48.9333 63.0933 45.2 64.64C41.4667 66.1867 37.44 66.96 33.12 66.96ZM33.12 58.32C36.2133 58.32 39.04 57.76 41.6 56.64C44.2133 55.52 46.48 53.9733 48.4 52C50.32 49.9733 51.8133 47.6267 52.88 44.96C53.9467 42.24 54.48 39.3067 54.48 36.16C54.48 33.0133 53.9467 30.1067 52.88 27.44C51.8133 24.7733 50.32 22.4267 48.4 20.4C46.48 18.3733 44.2133 16.8 41.6 15.68C39.04 14.56 36.2133 14 33.12 14C30.0267 14 27.1733 14.56 24.56 15.68C22 16.8 19.76 18.3733 17.84 20.4C15.92 22.4267 14.4267 24.7733 13.36 27.44C12.3467 30.1067 11.84 33.0133 11.84 36.16C11.84 39.3067 12.3467 42.24 13.36 44.96C14.4267 47.6267 15.92 49.9733 17.84 52C19.76 53.9733 22.0267 55.52 24.64 56.64C27.2533 57.76 30.08 58.32 33.12 58.32ZM74.3944 66V6.39999H96.0744C100.074 6.39999 103.594 7.14666 106.634 8.64C109.674 10.08 112.048 12.2133 113.754 15.04C115.514 17.8133 116.394 21.1467 116.394 25.04C116.394 29.1467 115.354 32.6667 113.274 35.6C111.248 38.5333 108.501 40.6667 105.034 42L118.794 66H108.074L93.4344 40L99.5944 43.6H83.8344V66H74.3944ZM83.8344 35.2H96.2344C98.421 35.2 100.314 34.7733 101.914 33.92C103.514 33.0667 104.741 31.8933 105.594 30.4C106.501 28.8533 106.954 27.04 106.954 24.96C106.954 22.88 106.501 21.0933 105.594 19.6C104.741 18.0533 103.514 16.88 101.914 16.08C100.314 15.2267 98.421 14.8 96.2344 14.8H83.8344V35.2ZM121.458 66L142.418 6.39999H154.098L175.058 66H164.978L160.418 52.64H136.178L131.538 66H121.458ZM138.898 44.24H157.538L146.978 13.04H149.618L138.898 44.24ZM182.129 66V6.39999H189.729L223.169 52.56L219.569 53.12V6.39999H228.929V66H221.329L188.129 19.52L191.569 18.88V66H182.129ZM236.469 66V58.8L267.029 14.8H238.229V6.39999H279.109V13.52L248.549 57.6H279.829V66H236.469ZM316.323 66.96C312.003 66.96 307.976 66.1867 304.243 64.64C300.563 63.0933 297.31 60.9333 294.483 58.16C291.71 55.3867 289.523 52.1333 287.923 48.4C286.376 44.6667 285.603 40.5867 285.603 36.16C285.603 31.7333 286.376 27.6533 287.923 23.92C289.523 20.1333 291.71 16.88 294.483 14.16C297.256 11.3867 300.51 9.25333 304.243 7.76C307.976 6.21333 312.003 5.44 316.323 5.44C320.696 5.44 324.723 6.21333 328.403 7.76C332.136 9.25333 335.39 11.3867 338.163 14.16C340.99 16.9333 343.176 20.1867 344.723 23.92C346.27 27.6533 347.043 31.7333 347.043 36.16C347.043 40.5867 346.243 44.6667 344.643 48.4C343.096 52.1333 340.936 55.3867 338.163 58.16C335.39 60.9333 332.136 63.0933 328.403 64.64C324.67 66.1867 320.643 66.96 316.323 66.96ZM316.323 58.32C319.416 58.32 322.243 57.76 324.803 56.64C327.416 55.52 329.683 53.9733 331.603 52C333.523 49.9733 335.016 47.6267 336.083 44.96C337.15 42.24 337.683 39.3067 337.683 36.16C337.683 33.0133 337.15 30.1067 336.083 27.44C335.016 24.7733 333.523 22.4267 331.603 20.4C329.683 18.3733 327.416 16.8 324.803 15.68C322.243 14.56 319.416 14 316.323 14C313.23 14 310.376 14.56 307.763 15.68C305.203 16.8 302.963 18.3733 301.043 20.4C299.123 22.4267 297.63 24.7733 296.563 27.44C295.55 30.1067 295.043 33.0133 295.043 36.16C295.043 39.3067 295.55 42.24 296.563 44.96C297.63 47.6267 299.123 49.9733 301.043 52C302.963 53.9733 305.23 55.52 307.843 56.64C310.456 57.76 313.283 58.32 316.323 58.32ZM357.598 66V6.39999H365.198L398.638 52.56L395.038 53.12V6.39999H404.398V66H396.798L363.598 19.52L367.038 18.88V66H357.598ZM419.858 66V55.6H429.058V66H419.858Z" fill="white"/>
</g>
<defs>
<clipPath id="clip0_91_489">
<rect width="440" height="67" fill="white"/>
</clipPath>
</defs>
</svg>
