<svg width="428" height="62" viewBox="0 0 428 62" fill="none" xmlns="http://www.w3.org/2000/svg">
<path d="M31.12 61.96C26.8 61.96 22.7733 61.1867 19.04 59.64C15.36 58.0933 12.1067 55.9333 9.28 53.16C6.50667 50.3867 4.32 47.1333 2.72 43.4C1.17333 39.6667 0.4 35.5867 0.4 31.16C0.4 26.7333 1.17333 22.6533 2.72 18.92C4.32 15.1333 6.50667 11.88 9.28 9.16C12.0533 6.38666 15.3067 4.25333 19.04 2.76C22.7733 1.21333 26.8 0.439998 31.12 0.439998C35.4933 0.439998 39.52 1.21333 43.2 2.76C46.9333 4.25333 50.1867 6.38666 52.96 9.16C55.7867 11.9333 57.9733 15.1867 59.52 18.92C61.0667 22.6533 61.84 26.7333 61.84 31.16C61.84 35.5867 61.04 39.6667 59.44 43.4C57.8933 47.1333 55.7333 50.3867 52.96 53.16C50.1867 55.9333 46.9333 58.0933 43.2 59.64C39.4667 61.1867 35.44 61.96 31.12 61.96ZM31.12 53.32C34.2133 53.32 37.04 52.76 39.6 51.64C42.2133 50.52 44.48 48.9733 46.4 47C48.32 44.9733 49.8133 42.6267 50.88 39.96C51.9467 37.24 52.48 34.3067 52.48 31.16C52.48 28.0133 51.9467 25.1067 50.88 22.44C49.8133 19.7733 48.32 17.4267 46.4 15.4C44.48 13.3733 42.2133 11.8 39.6 10.68C37.04 9.56 34.2133 9 31.12 9C28.0267 9 25.1733 9.56 22.56 10.68C20 11.8 17.76 13.3733 15.84 15.4C13.92 17.4267 12.4267 19.7733 11.36 22.44C10.3467 25.1067 9.84 28.0133 9.84 31.16C9.84 34.3067 10.3467 37.24 11.36 39.96C12.4267 42.6267 13.92 44.9733 15.84 47C17.76 48.9733 20.0267 50.52 22.64 51.64C25.2533 52.76 28.08 53.32 31.12 53.32ZM72.3944 61V1.39999H94.0744C98.0744 1.39999 101.594 2.14666 104.634 3.64C107.674 5.08 110.048 7.21333 111.754 10.04C113.514 12.8133 114.394 16.1467 114.394 20.04C114.394 24.1467 113.354 27.6667 111.274 30.6C109.248 33.5333 106.501 35.6667 103.034 37L116.794 61H106.074L91.4344 35L97.5944 38.6H81.8344V61H72.3944ZM81.8344 30.2H94.2344C96.421 30.2 98.3144 29.7733 99.9144 28.92C101.514 28.0667 102.741 26.8933 103.594 25.4C104.501 23.8533 104.954 22.04 104.954 19.96C104.954 17.88 104.501 16.0933 103.594 14.6C102.741 13.0533 101.514 11.88 99.9144 11.08C98.3144 10.2267 96.421 9.8 94.2344 9.8H81.8344V30.2ZM119.458 61L140.418 1.39999H152.098L173.058 61H162.978L158.418 47.64H134.178L129.538 61H119.458ZM136.898 39.24H155.538L144.978 8.04H147.618L136.898 39.24ZM180.129 61V1.39999H187.729L221.169 47.56L217.569 48.12V1.39999H226.929V61H219.329L186.129 14.52L189.569 13.88V61H180.129ZM234.469 61V53.8L265.029 9.8H236.229V1.39999H277.109V8.52L246.549 52.6H277.829V61H234.469ZM314.323 61.96C310.003 61.96 305.976 61.1867 302.243 59.64C298.563 58.0933 295.31 55.9333 292.483 53.16C289.71 50.3867 287.523 47.1333 285.923 43.4C284.376 39.6667 283.603 35.5867 283.603 31.16C283.603 26.7333 284.376 22.6533 285.923 18.92C287.523 15.1333 289.71 11.88 292.483 9.16C295.256 6.38666 298.51 4.25333 302.243 2.76C305.976 1.21333 310.003 0.439998 314.323 0.439998C318.696 0.439998 322.723 1.21333 326.403 2.76C330.136 4.25333 333.39 6.38666 336.163 9.16C338.99 11.9333 341.176 15.1867 342.723 18.92C344.27 22.6533 345.043 26.7333 345.043 31.16C345.043 35.5867 344.243 39.6667 342.643 43.4C341.096 47.1333 338.936 50.3867 336.163 53.16C333.39 55.9333 330.136 58.0933 326.403 59.64C322.67 61.1867 318.643 61.96 314.323 61.96ZM314.323 53.32C317.416 53.32 320.243 52.76 322.803 51.64C325.416 50.52 327.683 48.9733 329.603 47C331.523 44.9733 333.016 42.6267 334.083 39.96C335.15 37.24 335.683 34.3067 335.683 31.16C335.683 28.0133 335.15 25.1067 334.083 22.44C333.016 19.7733 331.523 17.4267 329.603 15.4C327.683 13.3733 325.416 11.8 322.803 10.68C320.243 9.56 317.416 9 314.323 9C311.23 9 308.376 9.56 305.763 10.68C303.203 11.8 300.963 13.3733 299.043 15.4C297.123 17.4267 295.63 19.7733 294.563 22.44C293.55 25.1067 293.043 28.0133 293.043 31.16C293.043 34.3067 293.55 37.24 294.563 39.96C295.63 42.6267 297.123 44.9733 299.043 47C300.963 48.9733 303.23 50.52 305.843 51.64C308.456 52.76 311.283 53.32 314.323 53.32ZM355.598 61V1.39999H363.198L396.638 47.56L393.038 48.12V1.39999H402.398V61H394.798L361.598 14.52L365.038 13.88V61H355.598ZM417.858 61V50.6H427.058V61H417.858Z" fill="black"/>
</svg>
